HIERARCHY
ROOT hip
{
  OFFSET 0 0 0
  CHANNELS 6 Xposition Yposition Zposition Zrotation Yrotation Xrotation
  JOINT abdomen
  {
    OFFSET 0 20.6881 -0.73152
    CHANNELS 3 Zrotation Xrotation Yrotation
    JOINT chest
    {
      OFFSET 0 11.7043 -0.48768
      CHANNELS 3 Zrotation Xrotation Yrotation
      JOINT neck
      {
        OFFSET 0 22.1894 -2.19456
        CHANNELS 3 Zrotation Xrotation Yrotation
        JOINT head
        {
          OFFSET -0.24384 7.07133 1.2192
          CHANNELS 3 Zrotation Xrotation Yrotation
          JOINT leftEye
          {
            OFFSET 4.14528 8.04674 8.04672
            CHANNELS 3 Zrotation Xrotation Yrotation
            End Site
            {
              OFFSET 1 0 0
            }
          }
          JOINT rightEye
          {
            OFFSET -3.6576 8.04674 8.04672
            CHANNELS 3 Zrotation Xrotation Yrotation
            End Site
            {
              OFFSET 1 0 0
            }
          }
        }
      }
      JOINT rCollar
      {
        OFFSET -2.68224 19.2634 -4.8768
        CHANNELS 3 Zrotation Xrotation Yrotation
        JOINT rShldr
        {
          OFFSET -8.77824 -1.95073 1.46304
          CHANNELS 3 Zrotation Xrotation Yrotation
          JOINT rForeArm
          {
            OFFSET -28.1742 -1.7115 0.48768
            CHANNELS 3 Zrotation Xrotation Yrotation
            JOINT rHand
            {
              OFFSET -22.5879 0.773209 7.07136
              CHANNELS 3 Zrotation Xrotation Yrotation
              JOINT rThumb1
              {
                OFFSET -1.2192 -0.487915 3.41376
                CHANNELS 3 Zrotation Xrotation Yrotation
                JOINT rThumb2
                {
                  OFFSET -3.37035 -0.52449 3.41376
                  CHANNELS 3 Zrotation Xrotation Yrotation
                  End Site
                  {
                    OFFSET -1.78271 -1.18214 1.43049
                  }
                }
              }
              JOINT rIndex1
              {
                OFFSET -7.75947 0.938293 5.60832
                CHANNELS 3 Zrotation Xrotation Yrotation
                JOINT rIndex2
                {
                  OFFSET -2.54057 -0.884171 1.56538
                  CHANNELS 3 Zrotation Xrotation Yrotation
                  End Site
                  {
                    OFFSET -1.62519 -0.234802 1.16502
                  }
                }
              }
              JOINT rMid1
              {
                OFFSET -8.24714 1.18213 3.41376
                CHANNELS 3 Zrotation Xrotation Yrotation
                JOINT rMid2
                {
                  OFFSET -3.10165 -0.590103 1.0647
                  CHANNELS 3 Zrotation Xrotation Yrotation
                  End Site
                  {
                    OFFSET -2.48547 -0.328903 0.83742
                  }
                }
              }
              JOINT rRing1
              {
                OFFSET -8.82822 0.546677 1.51678
                CHANNELS 3 Zrotation Xrotation Yrotation
                JOINT rRing2
                {
                  OFFSET -2.60934 -0.819778 -0.0198488
                  CHANNELS 3 Zrotation Xrotation Yrotation
                  End Site
                  {
                    OFFSET -2.33842 -0.294052 0.168128
                  }
                }
              }
              JOINT rPinky1
              {
                OFFSET -8.27202 -0.0477905 -0.4584
                CHANNELS 3 Zrotation Xrotation Yrotation
                JOINT rPinky2
                {
                  OFFSET -1.82734 -0.647385 -0.700984
                  CHANNELS 3 Zrotation Xrotation Yrotation
                  End Site
                  {
                    OFFSET -1.69225 -0.51767 -0.607171
                  }
                }
              }
            }
          }
        }
      }
      JOINT lCollar
      {
        OFFSET 2.68224 19.2634 -4.8768
        CHANNELS 3 Zrotation Xrotation Yrotation
        JOINT lShldr
        {
          OFFSET 8.77824 -1.95073 1.46304
          CHANNELS 3 Zrotation Xrotation Yrotation
          JOINT lForeArm
          {
            OFFSET 28.1742 -1.7115 0.48768
            CHANNELS 3 Zrotation Xrotation Yrotation
            JOINT lHand
            {
              OFFSET 22.5879 0.773209 7.07136
              CHANNELS 3 Zrotation Xrotation Yrotation
              JOINT lThumb1
              {
                OFFSET 1.2192 -0.487915 3.41376
                CHANNELS 3 Zrotation Xrotation Yrotation
                JOINT lThumb2
                {
                  OFFSET 3.37035 -0.52449 3.41376
                  CHANNELS 3 Zrotation Xrotation Yrotation
                  End Site
                  {
                    OFFSET 1.78271 -1.18214 1.43049
                  }
                }
              }
              JOINT lIndex1
              {
                OFFSET 7.75947 0.938293 5.60832
                CHANNELS 3 Zrotation Xrotation Yrotation
                JOINT lIndex2
                {
                  OFFSET 2.54057 -0.884171 1.56538
                  CHANNELS 3 Zrotation Xrotation Yrotation
                  End Site
                  {
                    OFFSET 1.62519 -0.234802 1.16502
                  }
                }
              }
              JOINT lMid1
              {
                OFFSET 8.24714 1.18213 3.41376
                CHANNELS 3 Zrotation Xrotation Yrotation
                JOINT lMid2
                {
                  OFFSET 3.10165 -0.590103 1.0647
                  CHANNELS 3 Zrotation Xrotation Yrotation
                  End Site
                  {
                    OFFSET 2.48547 -0.328903 0.83742
                  }
                }
              }
              JOINT lRing1
              {
                OFFSET 8.82822 0.546677 1.51678
                CHANNELS 3 Zrotation Xrotation Yrotation
                JOINT lRing2
                {
                  OFFSET 2.60934 -0.819778 -0.0198488
                  CHANNELS 3 Zrotation Xrotation Yrotation
                  End Site
                  {
                    OFFSET 2.33842 -0.294052 0.168128
                  }
                }
              }
              JOINT lPinky1
              {
                OFFSET 8.27202 -0.0477905 -0.4584
                CHANNELS 3 Zrotation Xrotation Yrotation
                JOINT lPinky2
                {
                  OFFSET 1.82734 -0.647385 -0.700984
                  CHANNELS 3 Zrotation Xrotation Yrotation
                  End Site
                  {
                    OFFSET 1.69225 -0.51767 -0.607171
                  }
                }
              }
            }
          }
        }
      }
    }
  }
  JOINT rButtock
  {
    OFFSET -8.77824 4.35084 1.2192
    CHANNELS 3 Zrotation Xrotation Yrotation
    JOINT rThigh
    {
      OFFSET 0 -1.70687 -2.19456
      CHANNELS 3 Zrotation Xrotation Yrotation
      JOINT rShin
      {
        OFFSET 0 -36.8199 0.73152
        CHANNELS 3 Zrotation Xrotation Yrotation
        JOINT rFoot
        {
          OFFSET 0.73152 -45.1104 -5.12064
          CHANNELS 3 Zrotation Xrotation Yrotation
          End Site
          {
            OFFSET -1.1221 -3.69964 12.103
          }
        }
      }
    }
  }
  JOINT lButtock
  {
    OFFSET 8.77824 4.35084 1.2192
    CHANNELS 3 Zrotation Xrotation Yrotation
    JOINT lThigh
    {
      OFFSET 0 -1.70687 -2.19456
      CHANNELS 3 Zrotation Xrotation Yrotation
      JOINT lShin
      {
        OFFSET 0 -36.8199 0.73152
        CHANNELS 3 Zrotation Xrotation Yrotation
        JOINT lFoot
        {
          OFFSET -0.73152 -45.1104 -5.12064
          CHANNELS 3 Zrotation Xrotation Yrotation
          End Site
          {
            OFFSET 1.1221 -3.69964 12.103
          }
        }
      }
    }
  }
}
MOTION
Frames:	5
Frame Time:	0.00833333
167.408 59.5874 -4.37705 -409.32 -89.0146 105.645 -2.47623 1.21949 -8.53158 2.08383 0.551563 -2.13462 -9.57016 1.13478 3.47436 18.7969 -15.3702 11.8914 -0.0 0.0 0.0 -0.0 0.0 0.0 3.08074e-13 -1.83618e-12 -3.0781e-14 20.5463 36.7416 63.6144 -23.6202 -18.4038 48.4298 -0.288965 15.1353 2.17842 -1.08183e-08 7.86619e-09 -1.55192e-09 -1.87205e-08 1.36429e-08 -2.53873e-09 -1.08183e-08 7.86618e-09 -1.55193e-09 7.73091 5.47488 0.417314 -1.08183e-08 7.86618e-09 -1.55192e-09 2.90554 0.965183 0.102902 -1.08183e-08 7.86618e-09 -1.55192e-09 10.2786 0.731801 0.0259123 -1.08183e-08 7.86619e-09 -1.55192e-09 2.22167 -0.733487 -0.20892 3.08021e-13 -1.83617e-12 -3.10547e-14 -20.2024 27.8531 -47.9773 24.1941 -19.4641 -50.2296 0.264451 14.4853 -2.08075 9.54988e-09 6.50165e-09 3.47311e-09 1.65486e-08 1.12902e-08 5.88666e-09 9.54988e-09 6.50166e-09 3.47312e-09 -7.73091 5.47488 -0.417314 9.54988e-09 6.50165e-09 3.47311e-09 -2.90554 0.965183 -0.102902 9.54987e-09 6.50165e-09 3.47311e-09 -10.2786 0.731801 -0.0259123 9.54988e-09 6.50165e-09 3.47311e-09 -2.22167 -0.733487 0.20892 -2.03217e-16 0.0 -3.88251e-19 158.673 -74.6042 152.942 -173.538 79.1046 174.404 -5.54929 -12.5262 -10.5591 2.03217e-16 0.0 3.88251e-19 -5.86768 -11.3288 -8.23653 -0.104758 18.4747 -1.09491 4.8311 19.9561 -10.1119
167.003 59.5383 -4.38238 -413.777 -89.1827 110.199 -2.56043 1.2449 -8.42687 2.19613 0.576053 -2.11048 -9.57125 1.10513 3.40714 18.8248 -15.3011 11.7522 -0.0 0.0 0.0 -0.0 0.0 0.0 2.54954e-13 -1.49604e-12 -6.93479e-14 20.2587 36.6353 63.6027 -23.6047 -18.3762 48.3834 -0.270064 14.6538 2.10584 -8.86041e-09 7.07703e-09 -8.65438e-10 -1.53277e-08 1.22712e-08 -1.37823e-09 -8.86041e-09 7.07702e-09 -8.65446e-10 7.73091 5.47488 0.417314 -8.86041e-09 7.07703e-09 -8.65435e-10 2.90554 0.965183 0.102902 -8.8604e-09 7.07702e-09 -8.65438e-10 10.2786 0.731801 0.0259123 -8.86042e-09 7.07703e-09 -8.6543e-10 2.22167 -0.733487 -0.20892 2.5498e-13 -1.49603e-12 -6.95746e-14 -20.3705 27.9586 -48.0965 24.1673 -19.413 -50.1436 0.26807 14.5816 -2.0952 7.56492e-09 5.0751e-09 2.85926e-09 1.31096e-08 8.81466e-09 4.85002e-09 7.56492e-09 5.0751e-09 2.85927e-09 -7.73091 5.47488 -0.417314 7.56492e-09 5.0751e-09 2.85926e-09 -2.90554 0.965183 -0.102902 7.56492e-09 5.0751e-09 2.85926e-09 -10.2786 0.731801 -0.0259123 7.56492e-09 5.0751e-09 2.85926e-09 -2.22167 -0.733487 0.20892 -2.03217e-16 0.0 -3.88251e-19 157.78 -75.0736 152.038 -173.499 79.1835 174.365 -5.50012 -12.543 -10.458 2.03217e-16 0.0 3.88251e-19 -5.79574 -11.0257 -8.21686 -0.101277 18.2606 -1.07665 4.96913 21.1571 -9.95866
166.544 59.5689 -4.38843 -404.008 -89.2723 100.362 -2.6451 1.26064 -8.33136 2.30452 0.609838 -2.08911 -9.5551 1.04815 3.34421 18.822 -15.2115 11.6142 -0.0 0.0 0.0 -0.0 0.0 0.0 1.84513e-13 -1.05956e-12 -1.02996e-13 19.9555 36.5322 63.6142 -23.5842 -18.3399 48.3211 -0.25322 14.1938 2.03696 -6.33734e-09 5.85697e-09 -1.07493e-10 -1.09571e-08 1.01522e-08 -1.01759e-10 -6.33735e-09 5.85697e-09 -1.075e-10 7.73091 5.47488 0.417314 -6.33734e-09 5.85697e-09 -1.07485e-10 2.90554 0.965183 0.102902 -6.33734e-09 5.85697e-09 -1.07491e-10 10.2786 0.731801 0.0259123 -6.33735e-09 5.85697e-09 -1.07479e-10 2.22167 -0.733487 -0.20892 1.84602e-13 -1.05956e-12 -1.03175e-13 -20.5239 28.0571 -48.2139 24.1414 -19.3636 -50.0602 0.27161 14.6748 -2.1092 5.06388e-09 3.309e-09 2.04864e-09 8.7763e-09 5.74947e-09 3.47939e-09 5.06388e-09 3.309e-09 2.04865e-09 -7.73091 5.47488 -0.417314 5.06388e-09 3.309e-09 2.04864e-09 -2.90554 0.965183 -0.102902 5.06387e-09 3.309e-09 2.04864e-09 -10.2786 0.731801 -0.0259123 5.06388e-09 3.309e-09 2.04863e-09 -2.22167 -0.733487 0.20892 -2.03217e-16 0.0 -3.88251e-19 156.93 -75.5385 151.178 -173.452 79.2741 174.316 -5.44188 -12.5668 -10.3357 2.03217e-16 0.0 3.88251e-19 -5.7237 -10.7926 -8.18432 -0.0979888 18.1163 -1.05832 5.10151 22.342 -9.82452
166.085 59.6389 -4.44522 -396.303 -89.132 92.6173 -2.68981 1.26681 -8.28179 2.37928 0.651394 -2.08052 -9.52347 0.987658 3.30119 18.8 -15.1289 11.5113 -0.0 0.0 0.0 -0.0 0.0 0.0 1.48544e-13 -8.58151e-13 -1.15991e-13 19.7775 36.5057 63.6233 -23.551 -18.2812 48.2189 -0.245091 13.9585 2.0019 -4.88577e-09 5.10901e-09 3.0671e-10 -8.44275e-09 8.85309e-09 5.94635e-10 -4.88577e-09 5.10901e-09 3.06704e-10 7.73091 5.47488 0.417314 -4.88577e-09 5.10901e-09 3.0672e-10 2.90554 0.965183 0.102902 -4.88576e-09 5.10901e-09 3.06713e-10 10.2786 0.731801 0.0259123 -4.88578e-09 5.10901e-09 3.06726e-10 2.22167 -0.733487 -0.20892 1.48649e-13 -8.58155e-13 -1.1614e-13 -20.6499 28.136 -48.3003 24.1136 -19.3108 -49.9707 0.274586 14.7524 -2.12086 3.61017e-09 2.29484e-09 1.55524e-09 6.25741e-09 3.98901e-09 2.64397e-09 3.61017e-09 2.29484e-09 1.55525e-09 -7.73091 5.47488 -0.417314 3.61017e-09 2.29484e-09 1.55525e-09 -2.90554 0.965183 -0.102902 3.61017e-09 2.29484e-09 1.55524e-09 -10.2786 0.731801 -0.0259123 3.61018e-09 2.29484e-09 1.55523e-09 -2.22167 -0.733487 0.20892 -2.03217e-16 0.0 -3.88251e-19 156.147 -76.0264 150.365 -173.381 79.4071 174.24 -5.36238 -12.6267 -10.1579 2.03217e-16 0.0 3.88251e-19 -5.64696 -10.7041 -8.09888 -0.0953348 18.1045 -1.03978 5.25692 23.4788 -9.79306
165.601 59.7168 -4.50855 -393.896 -89.0039 90.2287 -2.67135 1.24937 -8.29991 2.40082 0.712486 -2.0908 -9.46581 0.919225 3.28676 18.7428 -15.0549 11.4571 -0.0 0.0 0.0 -0.0 0.0 0.0 1.77098e-13 -1.09984e-12 -9.61644e-14 19.7967 36.5936 63.6236 -23.4974 -18.187 48.0548 -0.248895 14.0656 2.01788 -5.31872e-09 5.25968e-09 1.68961e-10 -9.19242e-09 9.11388e-09 3.61651e-10 -5.31873e-09 5.25968e-09 1.68956e-10 7.73091 5.47488 0.417314 -5.31872e-09 5.25968e-09 1.68971e-10 2.90554 0.965183 0.102902 -5.31871e-09 5.25968e-09 1.68964e-10 10.2786 0.731801 0.0259123 -5.31873e-09 5.25968e-09 1.68977e-10 2.22167 -0.733487 -0.20892 1.77142e-13 -1.09984e-12 -9.63154e-14 -20.7406 28.1866 -48.3314 24.0865 -19.2596 -49.885 0.276192 14.7934 -2.12704 3.94848e-09 2.562e-09 1.60438e-09 6.84283e-09 4.45175e-09 2.72359e-09 3.94848e-09 2.562e-09 1.60438e-09 -7.73091 5.47488 -0.417314 3.94848e-09 2.562e-09 1.60438e-09 -2.90554 0.965183 -0.102902 3.94847e-09 2.562e-09 1.60438e-09 -10.2786 0.731801 -0.0259123 3.94848e-09 2.562e-09 1.60437e-09 -2.22167 -0.733487 0.20892 -2.03217e-16 0.0 -3.88251e-19 155.502 -76.5445 149.659 -173.275 79.5957 174.123 -5.24845 -12.7419 -9.89212 2.03217e-16 0.0 3.88251e-19 -5.56685 -10.8181 -7.95444 -0.093761 18.268 -1.02034 5.44184 24.5605 -9.8706
